PathFileType	4	(X/Y/Z)	RBDS014\RBDS014runT45.trc
DataRate	CameraRate	NumFrames	NumMarkers	Units	OrigDataRate	OrigDataStartFrame	OrigNumFrames
150.000000	150.000000	4	32	mm	150.000000	1125	4500
Frame#	Time	L.ASIS			L.Heel.Bottom			L.Heel.Lateral			L.Heel.Top			L.Iliac.Crest			L.MT1			L.MT5			L.PSIS			L.Shank.Bottom.Lateral			L.Shank.Bottom.Medial			L.Shank.Top.Lateral			L.Shank.Top.Medial			L.Thigh.Bottom.Lateral			L.Thigh.Bottom.Medial			L.Thigh.Top.Lateral			L.Thigh.Top.Medial			R.ASIS			R.ASY			R.Heel.Bottom			R.Heel.Lateral			R.Heel.Top			R.Iliac.Crest			R.MT5			R.PSIS			R.Shank.Bottom.Lateral			R.Shank.Bottom.Medial			R.Shank.Top.Lateral			R.Shank.Top.Medial			R.Thigh.Bottom.Lateral			R.Thigh.Bottom.Medial			R.Thigh.Top.Lateral			R.Thigh.Top.Medial			
		X1	Y1	Z1	X2	Y2	Z2	X3	Y3	Z3	X4	Y4	Z4	X5	Y5	Z5	X6	Y6	Z6	X7	Y7	Z7	X8	Y8	Z8	X9	Y9	Z9	X10	Y10	Z10	X11	Y11	Z11	X12	Y12	Z12	X13	Y13	Z13	X14	Y14	Z14	X15	Y15	Z15	X16	Y16	Z16	X17	Y17	Z17	X18	Y18	Z18	X19	Y19	Z19	X20	Y20	Z20	X21	Y21	Z21	X22	Y22	Z22	X23	Y23	Z23	X24	Y24	Z24	X25	Y25	Z25	X26	Y26	Z26	X27	Y27	Z27	X28	Y28	Z28	X29	Y29	Z29	X30	Y30	Z30	X31	Y31	Z31	X32	Y32	Z32	

1126	7.500000000000001	2208.238407840839	1056.740978262037	943.1331408771186	1590.039407317461	139.2632610921535	1028.221839908009	1618.414714289528	140.7220176967324	984.7454687736904	1622.408980197685	177.2733466451923	1021.950308093025	2153.96227687609	1125.102595738801	913.072017509213	1798.310889024492	44.02736054974029	1072.47959695365	1752.428290300109	44.95568711108673	956.1078721331793	2043.419255504533	1096.252606777517	1037.75779108065	1749.998131157861	240.500962572414	952.0787802205623	1717.200436719845	269.9382599795594	985.7799583300183	1788.748475153294	308.0184605761962	931.5170696447524	1757.365583894311	337.5564331485079	963.8246892482825	2035.779830167214	691.997198540584	892.1975751092878	1980.490835380937	702.6597860608875	938.1076739714647	2045.794444782753	801.8481567347707	884.3799976406402	1996.371111945701	811.8149157864527	931.2938874504654	2239.98828140122	1069.337706916045	1182.949255536211	2155.639280696565	330.8379510454621	1121.614674131194	1969.297831457891	417.2550656888586	1103.668932820132	2001.167890608089	421.8231419598739	1142.490364956863	2010.426433464399	448.6664745253302	1099.629377771123	2175.522938266041	1140.336950116884	1221.035435593397	2118.053663586428	295.1310155198247	1191.284105252157	2060.082646788582	1101.14950944627	1128.853895525542	2145.594961237039	483.9481388309051	1157.454414689071	2130.743229016928	514.1166042569496	1118.809480493031	2211.236941901273	536.699854653939	1170.31425691328	2191.155677442408	566.4636781808933	1131.154273163536	2409.466238802166	768.1328132029346	1201.25987271836	2363.202787634065	719.4300027917195	1171.343659094886	2322.774543121493	829.8662401988839	1228.171611060704	2278.647303348524	782.8736274358121	1200.735181809895	
1127	7.506666666666667	2211.781347845252	1059.292626765994	942.8122193215773	1571.029433352264	154.9306934870885	1026.808682222102	1599.500032459462	154.0331898146535	983.4019186900595	1605.806432556942	190.4283462709268	1020.305067488189	2160.478944314345	1128.452615776502	913.5985628440236	1771.556481333585	44.83325870583962	1072.025792801543	1725.933183042903	48.21365329270635	955.4842157628223	2046.98236908415	1100.527941681011	1036.759886624352	1731.924717619923	249.9824199714664	950.8623291199256	1699.603648801366	279.0033912386373	985.3909597088035	1770.819277223399	317.6234963239206	931.0927907238013	1739.840811385669	346.7598457087556	964.1233096919148	2026.365345065686	698.3953645242229	893.1086194177828	1971.902428098107	711.5425017084983	939.4910557984794	2040.726011532017	807.7684555887158	884.9334494118007	1992.316654014586	819.8551458516872	932.4596853584964	2242.725112559718	1074.946569694663	1181.2329774942	2186.744660118467	318.4526152610966	1122.012796439715	1994.333418967499	389.0664058054538	1101.372582241183	2025.27328147446	396.5702175498607	1140.453627676714	2032.766750810168	423.8273376684764	1097.413011350403	2177.840673812283	1146.327263125397	1220.501473200425	2151.739391822116	280.4952438515352	1191.717798244354	2063.008373773228	1107.021265397863	1128.011962617442	2164.450905766134	470.2457016233852	1156.307477296753	2147.945564580556	498.8817438173758	1117.216278796303	2225.900122714335	527.9445149761104	1169.302551203113	2204.179855420021	555.7702553320051	1129.644517502375	2413.588634590689	778.5924814852367	1200.928918820093	2367.823359635712	728.8019890617459	1172.053818689926	2326.220238704443	839.0012735235711	1228.127966342879	2282.563494110463	791.078040659386	1201.564409463586	
1128	7.513333333333334	2215.515413146964	1061.822244330617	942.692000200953	1553.933430928781	171.4385440007817	1025.414696869495	1582.325682115425	168.2172404751587	982.0714433911601	1591.063509550214	204.1827143036045	1018.74631843802	2166.957476604242	1131.93355708649	914.2320193058182	1745.545345529626	46.53715201868007	1071.350540245872	1700.352915553887	52.4983708960071	954.7253596618062	2050.613278981761	1104.847017178073	1035.570118280805	1715.312696078924	259.8029823679061	949.646035572381	1683.435314693866	288.3574690912487	985.0025645475095	1754.322086107235	327.5967265964887	930.7272072022276	1723.734084951956	356.2737181463243	964.5066513988555	2017.999950877579	705.1137829733759	894.0121032149985	1964.274113812287	720.6617132160734	940.6295870525377	2036.521782737323	813.8473678607884	885.3649900899737	1989.098509426951	827.9823371456525	933.3346164739537	2245.211787186044	1080.056346531755	1179.841249231492	2218.290925571062	306.7103507336299	1122.205071486298	2021.167661700827	361.2149464724853	1098.72440973492	2050.87977991666	371.4940904034195	1138.086432709393	2056.698072295528	399.0648226188135	1094.900546574959	2179.995018510805	1151.947367909484	1220.035432369356	2185.832091138523	266.5977619754839	1191.898516151201	2065.917416760042	1112.664516940716	1126.980091084758	2183.923870645688	456.3136994952974	1154.933842908189	2166.015981313915	483.2650190244374	1115.297120438124	2240.842614766229	518.5717404328886	1168.078192758338	2217.807978549954	544.3119601087793	1127.79842516268	2416.95232542925	787.7193190331604	1200.75085369875	2371.559739542324	736.9474675275231	1172.967225370168	2329.075605229193	847.1245278628166	1228.097328747461	2285.769151355256	798.4019229323837	1202.419024008551	
1129	7.52	2219.353136927871	1064.273097738177	942.7735199934904	1538.692547156519	188.6593372008015	1024.12806428278	1566.83207567969	183.1997529629199	980.8308375898669	1578.069889614126	218.4586467084362	1017.358503369097	2173.241608687657	1135.492832262305	914.9224786740007	1720.343878325198	49.34818551165755	1070.467370260568	1675.758924678911	57.9674771768517	953.8859284624338	2054.211040378446	1109.105820589786	1034.19439070226	1700.112388607389	269.9090909621474	948.5010525141709	1668.64921410755	297.9946671807532	984.6490644868453	1739.268655437405	337.8464138084829	930.4653237129615	1709.056413414117	366.0528257380502	964.979110602531	2010.747767737859	711.976032675267	894.9166892362637	1957.661518311827	729.8303767352046	941.5383907276674	2033.202942210483	819.925629477332	885.6640809959214	1986.703257535757	836.0372209406331	933.8904739876155	2247.368883861832	1084.565222140058	1178.857882747157	2250.124242340405	295.5879432759768	1122.16499704006	2049.626538775328	333.8499069627431	1095.768248000551	2077.852525360782	346.6904204232137	1135.43133977123	2082.074242521456	374.510614238372	1092.146433394396	2181.90874548704	1157.061890023638	1219.632398969632	2220.182868865674	253.3732072112323	1191.782059198654	2068.704324390549	1117.934958435917	1125.7603691668	2203.929472215474	442.1467483011339	1153.374427874267	2184.862711476122	467.321333917056	1113.123312219022	2256.017714201575	508.5385043661031	1166.706988060338	2231.987361436763	532.1185547179656	1125.716113088185	2419.589918399862	795.3772035781657	1200.766365445156	2374.443041635402	743.7469679296922	1174.079814932889	2331.340072954836	854.0951654347282	1228.129154778394	2288.274426318202	804.718989646891	1203.287376260129	
